<svg role="presentation" width="16" height="16" viewBox="0 0 16 16" fill="none">
	<path d="M14.7663 1.41452C14.3753 0.966073 13.9111 0.610337 13.4002 0.367629C12.8893 0.124922 12.3417 0 11.7887 0C11.2357 0 10.6881 0.124922 10.1772 0.367629C9.66629 0.610337 9.20211 0.966073 8.81116 1.41452L7.9998 2.34476L7.18843 1.41452C6.39874 0.509117 5.32768 0.0004693 4.21089 0.000469309C3.09409 0.000469319 2.02303 0.509117 1.23334 1.41452C0.443646 2.31992 8.32078e-09 3.5479 0 4.82833C-8.32078e-09 6.10875 0.443646 7.33674 1.23334 8.24214L2.0447 9.17238L7.9998 16L13.9549 9.17238L14.7663 8.24214C15.1574 7.79391 15.4677 7.26171 15.6794 6.67596C15.891 6.0902 16 5.46237 16 4.82833C16 4.19428 15.891 3.56645 15.6794 2.9807C15.4677 2.39494 15.1574 1.86275 14.7663 1.41452Z" fill="#D64B59">
	</path>
</svg>
