<svg xmlns="http://www.w3.org/2000/svg" width="40" height="40" viewBox="0 0 30 30" fill="none">
	<path d="M8.31251 15.0581C6.6629 15.0581 5.21304 14.742 3.96294 14.1097C2.71284 13.4775 1.73983 12.6 1.0439 11.4775C0.347966 10.342 0 9.02583 0 7.52905C0 6.03228 0.347966 4.72259 1.0439 3.60001C1.73983 2.46452 2.71284 1.58065 3.96294 0.94839C5.21304 0.31613 6.6629 0 8.31251 0C9.96213 0 11.412 0.31613 12.6621 0.94839C13.9122 1.58065 14.8852 2.46452 15.5811 3.60001C16.2771 4.72259 16.625 6.03228 16.625 7.52905C16.625 9.02583 16.2771 10.342 15.5811 11.4775C14.8852 12.6 13.9122 13.4775 12.6621 14.1097C11.412 14.742 9.96213 15.0581 8.31251 15.0581ZM8.31251 12.7742C9.48529 12.7742 10.497 12.5613 11.3475 12.1355C12.1981 11.7097 12.8554 11.1033 13.3194 10.3162C13.7962 9.52906 14.0346 8.60003 14.0346 7.52905C14.0346 6.45808 13.7962 5.52905 13.3194 4.74195C12.8554 3.95485 12.1981 3.3484 11.3475 2.92259C10.497 2.49678 9.48529 2.28388 8.31251 2.28388C7.15263 2.28388 6.14095 2.49678 5.27748 2.92259C4.4269 3.3484 3.76319 3.95485 3.28634 4.74195C2.82239 5.52905 2.59041 6.45808 2.59041 7.52905C2.59041 8.60003 2.82239 9.52906 3.28634 10.3162C3.76319 11.1033 4.4269 11.7097 5.27748 12.1355C6.14095 12.5613 7.15263 12.7742 8.31251 12.7742Z" fill="white" />
	<path d="M21.0051 15.0581C19.3555 15.0581 17.9056 14.742 16.6555 14.1097C15.4054 13.4775 14.4324 12.6 13.7365 11.4775C13.0405 10.342 12.6926 9.02583 12.6926 7.52905C12.6926 6.03228 13.0405 4.72259 13.7365 3.60001C14.4324 2.46452 15.4054 1.58065 16.6555 0.94839C17.9056 0.31613 19.3555 0 21.0051 0C22.6547 0 24.1046 0.31613 25.3547 0.94839C26.6048 1.58065 27.5778 2.46452 28.2737 3.60001C28.9696 4.72259 29.3176 6.03228 29.3176 7.52905C29.3176 9.02583 28.9696 10.342 28.2737 11.4775C27.5778 12.6 26.6048 13.4775 25.3547 14.1097C24.1046 14.742 22.6547 15.0581 21.0051 15.0581ZM21.0051 12.7742C22.1779 12.7742 23.1895 12.5613 24.0401 12.1355C24.8907 11.7097 25.548 11.1033 26.0119 10.3162C26.4888 9.52906 26.7272 8.60003 26.7272 7.52905C26.7272 6.45808 26.4888 5.52905 26.0119 4.74195C25.548 3.95485 24.8907 3.3484 24.0401 2.92259C23.1895 2.49678 22.1779 2.28388 21.0051 2.28388C19.8452 2.28388 18.8335 2.49678 17.9701 2.92259C17.1195 3.3484 16.4558 3.95485 15.9789 4.74195C15.515 5.52905 15.283 6.45808 15.283 7.52905C15.283 8.60003 15.515 9.52906 15.9789 10.3162C16.4558 11.1033 17.1195 11.7097 17.9701 12.1355C18.8335 12.5613 19.8452 12.7742 21.0051 12.7742Z" fill="white" />
	<path d="M5.99319 16.6645H8.54493V30H5.99319V16.6645ZM0.000442461 15.4838H14.5377V17.729H0.000442461V15.4838Z" fill="white" />
	<path d="M21.025 15.4838C22.6746 15.4838 24.118 15.7871 25.3552 16.3935C26.6053 17 27.5783 17.8516 28.2743 18.9484C28.9702 20.0322 29.3182 21.2968 29.3182 22.7419C29.3182 24.1871 28.9702 25.4581 28.2743 26.5548C27.5783 27.6387 26.6053 28.4839 25.3552 29.0903C24.118 29.6968 22.6746 30 21.025 30H14.4716V15.4838H21.025ZM17.0234 29.1097L15.6122 27.7548H21.199C22.3073 27.7548 23.2739 27.5484 24.0987 27.1355C24.9364 26.7097 25.5808 26.1226 26.0318 25.3742C26.4958 24.6129 26.7278 23.7355 26.7278 22.7419C26.7278 21.7355 26.4958 20.858 26.0318 20.1097C25.5808 19.3613 24.9364 18.7806 24.0987 18.3677C23.2739 17.9419 22.3073 17.729 21.199 17.729H15.6122L17.0234 16.3742V29.1097Z" fill="white" />
</svg>
