<svg role="presentation" width="16" height="16" viewBox="0 0 16 16" fill="none">
	<path d="M14.3894 1.74308L14.3895 1.74326C14.738 2.14263 15.0175 2.62038 15.2091 3.15064C15.4008 3.68091 15.5 4.25116 15.5 4.82833C15.5 5.40549 15.4008 5.97575 15.2091 6.50602C15.0175 7.03627 14.738 7.51402 14.3895 7.91339L14.3894 7.91348L13.5781 8.84372L7.9998 15.2393L2.42151 8.84372L1.61015 7.91348C0.90538 7.10545 0.5 5.99655 0.5 4.82833C0.5 3.66011 0.90538 2.5512 1.61015 1.74317C2.31302 0.937314 3.25048 0.500469 4.21089 0.500469C5.1713 0.500469 6.10875 0.937314 6.81162 1.74317L7.62299 2.67341L7.9998 3.10543L8.37661 2.67341L9.18797 1.74317L9.18804 1.74308C9.53628 1.34363 9.94602 1.031 10.3917 0.819257C10.8372 0.60765 11.3116 0.5 11.7887 0.5C12.2658 0.5 12.7402 0.607649 13.1857 0.819257C13.6314 1.031 14.0411 1.34363 14.3894 1.74308Z" stroke="black" stroke-linecap="round">
	</path>
</svg>
